<?xml version="1.0" encoding="utf-8"?>
<!-- Generator: Adobe Illustrator 24.0.2, SVG Export Plug-In . SVG Version: 6.00 Build 0)  -->
<svg version="1.1" id="Layer_1" xmlns="http://www.w3.org/2000/svg" xmlns:xlink="http://www.w3.org/1999/xlink" x="0px" y="0px"
	 viewBox="0 0 1024 1024" style="enable-background:new 0 0 1024 1024;" xml:space="preserve">
<style type="text/css">
	.st0{fill:#008BC0;}
	.st1{fill:#77C2EC;}
	.st2{fill:none;stroke:#008BC0;stroke-width:44;stroke-linecap:round;stroke-linejoin:round;stroke-miterlimit:10;}
	.st3{fill:#005173;stroke:#008BC0;stroke-width:44;stroke-miterlimit:10;}
	.st4{fill:none;stroke:#005173;stroke-width:44;stroke-linecap:round;stroke-miterlimit:10;}
	.st5{fill:none;stroke:#008BC0;stroke-width:44;stroke-linecap:round;stroke-miterlimit:10;}
</style>
<path class="st0" d="M279.19,190.64l-1.87,6.9c-60.58,223.4-60.58,416.2,0,639.6l1.87,6.9c0,0,76.69,107.92,233.01,107.92
	s233.01-107.92,233.01-107.92l1.87-6.9c60.58-223.4,60.58-416.2,0-639.6l-1.87-6.9"/>
<path class="st1" d="M745.21,844.03l1.87-6.9c60.58-223.4,60.58-416.2,0-639.6l-1.87-6.9c0,0-76.69-45.23-233.01-45.23
	s-233.01,45.23-233.01,45.23l-1.87,6.9c-60.58,223.4-60.58,416.2,0,639.6l1.87,6.9c0,0,76.69,107.92,233.01,107.92
	S745.21,844.03,745.21,844.03z"/>
<path class="st2" d="M745.21,844.03l1.87-6.9c60.58-223.4,60.58-416.2,0-639.6l-1.87-6.9c0,0-76.69-98.59-233.01-98.59
	s-233.01,98.59-233.01,98.59l-1.87,6.9c-60.58,223.4-60.58,416.2,0,639.6l1.87,6.9c0,0,76.69,45.23,233.01,45.23
	S745.21,844.03,745.21,844.03z"/>
<path class="st3" d="M590.27,789.86H434.12c-36.7,0-66.45-29.75-66.45-66.45V353.95c0-36.7,29.75-66.45,66.45-66.45h156.15
	c36.7,0,66.45,29.75,66.45,66.45v369.46C656.72,760.11,626.97,789.86,590.27,789.86z"/>
<line class="st4" x1="670.49" y1="425.34" x2="670.49" y2="631.52"/>
<line class="st4" x1="353.91" y1="425.34" x2="353.91" y2="631.52"/>
<path class="st0" d="M193.76,655.46c-1.5-19.92-2.97-44.53-3.97-63.22c-0.8-14.89,11.05-27.39,25.96-27.39h76.33
	c8.27,0,15.08,6.48,15.49,14.74c1.03,20.74,3.14,57.66,5.2,83.17c0.73,9.03-6.4,16.77-15.46,16.77h-77.62
	C206.08,679.53,194.78,669.03,193.76,655.46z"/>
<path class="st0" d="M707.17,382.32c3.32,27.47,5.76,55.03,7.33,82.62c0.47,8.22,7.25,14.64,15.48,14.64h74.34
	c15.01,0,26.96-12.68,25.96-27.66c-1.43-21.37-3.38-42.71-5.86-64.01c-1.53-13.11-12.63-23-25.83-23h-76.03
	C713.24,364.9,706.05,373.06,707.17,382.32z"/>
<path class="st0" d="M312.08,382.32c-3.32,27.47-5.76,55.03-7.33,82.62c-0.47,8.22-7.25,14.64-15.48,14.64H216
	c-15.01,0-26.96-12.68-25.96-27.66c1.43-21.37,3.38-42.71,5.86-64.01c1.53-13.11,12.63-23,25.82-23h74.96
	C306.01,364.9,313.2,373.06,312.08,382.32z"/>
<path class="st5" d="M475.03,93.97c0,0-78.06-5.57-78.06,96.75"/>
<path class="st5" d="M545.22,93.97c0,0,72.37-5.57,72.37,96.75"/>
<path class="st0" d="M830.24,655.46c1.5-19.92,2.97-44.53,3.97-63.22c0.8-14.89-11.05-27.39-25.96-27.39h-75.93
	c-8.27,0-15.08,6.48-15.49,14.74c-1.03,20.74-3.14,57.66-5.2,83.17c-0.73,9.03,6.4,16.77,15.46,16.77h77.22
	C817.92,679.53,829.22,669.03,830.24,655.46z"/>
</svg>
